<?xml version="1.0" encoding="UTF-8"?>
<svg id="Layer_1" data-name="Layer 1" xmlns="http://www.w3.org/2000/svg" viewBox="0 0 360.37 170.03">
  <path d="m21.6,110.82c-4.08-4.13-6.95-7.8-8.62-11-1.66-3.2-2.49-6.63-2.49-10.29,0-5.51,1.67-10.68,5.02-15.52s7.83-8.69,13.46-11.54,11.67-4.27,18.12-4.27c7.31,0,12.94,1.52,16.88,4.56,3.94,3.04,5.91,7.33,5.91,12.89,0,2.66-.71,5.41-2.14,8.26-1.42,2.85-3.4,5.51-5.91,7.97-1.71,1.71-3.3,3-4.77,3.88-1.47.88-2.71,1.32-3.7,1.32-1.23,0-1.85-.95-1.85-2.85,0,.05.09-.69.28-2.21.28-2.23.43-4.22.43-5.98,0-2.47-.37-4.95-1.1-7.44-.74-2.49-1.69-4.58-2.85-6.27-1.16-1.68-2.27-2.53-3.31-2.53-.52,0-1.12.4-1.78,1.21-1.28,1.33-2.28,2.98-2.99,4.96-.71,1.97-1.07,3.81-1.07,5.53,0,2.14.3,4.12.91,5.95.61,1.83,1.67,3.69,3.2,5.59,1.52,1.9,3.54,3.98,6.06,6.26,3.99,3.6,7.07,6.76,9.23,9.46,2.16,2.71,3.74,5.4,4.74,8.08,1,2.68,1.5,5.59,1.5,8.72,0,5.51-1.45,10.82-4.34,15.95-2.9,5.13-6.73,9.27-11.5,12.43-4.77,3.16-9.7,4.73-14.78,4.73s-9.57-1.04-14.17-3.13c-4.61-2.09-8.93-5.08-12.96-8.97-4.18-4.13-6.27-7.79-6.27-10.97,0-1.95.93-3.85,2.78-5.7,1.9-1.9,4.24-3.51,7.01-4.84,2.78-1.33,5.11-1.99,7.01-1.99,1.09,0,2.02.27,2.78.82.76.55,1.43,1.47,2.03,2.78.59,1.31,1.18,3.07,1.74,5.31.9,3.18,1.73,5.54,2.49,7.09.76,1.54,1.83,3.07,3.2,4.59,1.42,1.42,2.92,2.14,4.49,2.14,1.9,0,3.39-.75,4.49-2.24,1.09-1.5,1.64-3.55,1.64-6.16,0-4.08-1.45-8.17-4.34-12.25-.85-1.38-1.79-2.6-2.81-3.67-1.02-1.07-3.24-3.12-6.66-6.15-1.05-.85-2.71-2.35-4.99-4.48Z" style="fill: #009444; stroke: #279148; stroke-miterlimit: 10; stroke-width: 1.48px;"/>
  <path d="m88.82,87.61l.28-.85c3.14-8.83,17.97-74.36,20.25-77.97,1.09-1.71,2.61-3.23,4.56-4.56,3.66-2.32,7.1-3.49,10.34-3.49,1.9,0,3.35.43,4.35,1.28,1,.86,1.5,2.09,1.5,3.71,0,1.09-.72,3.32-2.15,6.69-2.44,5.6-16.37,70.16-17.56,75.05.81.1,1.59.24,2.35.43,2.85.43,4.73.91,5.63,1.46.9.55,1.36,1.53,1.36,2.96,0,2.52-.64,4.84-1.92,6.98-1.28,2.14-2.97,3.71-5.05,4.7-1.57.71-4.1,1.19-7.61,1.42-.61,1.85-1.29,4.39-2.04,7.62-.42,2.85-.89,6.79-1.41,11.83-.29,1.85-.43,3.58-.43,5.19,0,7.49,3.63,11.24,10.9,11.24h.64c.86,0,1.28.14,1.28.43,0,.76-.81,2.04-2.42,3.85-1.61,1.8-3.39,3.39-5.34,4.77-2.09,1.42-4.37,2.56-6.84,3.42-2.47.85-4.71,1.28-6.7,1.28-5,0-9.05-1.68-12.16-5.06-3.12-3.37-4.67-7.83-4.67-13.39,0-2.37.41-5.48,1.25-9.33.83-3.85,2.12-9,3.88-15.45.28-1.14.59-2.34.93-3.6.33-1.26.52-2.01.57-2.24-1.9-.05-3.25-.45-4.06-1.21-.81-.76-1.21-1.99-1.21-3.7,0-2.99,1.15-5.81,3.45-8.47,2.3-2.66,5-4.32,8.08-4.98Z" style="fill: #009444; stroke: #279148; stroke-miterlimit: 10; stroke-width: 1.48px;"/>
  <path d="m150.21,136.6c.52,2.85,2.37,4.27,5.55,4.27,3.56,0,8.19-2.09,13.89-6.27,3.32-2.42,5.55-3.63,6.69-3.63,1.42,0,2.75.38,3.99,1.14,1.23.76,1.85,1.54,1.85,2.35,0,.85-.69,1.97-2.07,3.35-2.52,2.52-5.41,4.97-8.69,7.37-3.27,2.4-6.43,4.39-9.47,5.98-3.04,1.59-6.08,2.85-9.11,3.77s-5.74,1.39-8.12,1.39c-5.93,0-10.68-1.7-14.24-5.09-3.56-3.39-5.34-7.91-5.34-13.56,0-4.32.94-9.2,2.81-14.63,1.87-5.44,4.4-10.53,7.58-15.27,3.75-5.55,8.35-10.18,13.81-13.89,6.74-4.46,13.2-6.69,19.37-6.69,4.46,0,7.96,1.41,10.5,4.24,2.54,2.82,3.81,6.71,3.81,11.64,0,3.85-1.01,7.86-3.03,12.03-2.02,4.18-5,8.19-8.94,12.03-3.23,3.23-6.4,5.74-9.51,7.55-3.11,1.8-5.83,2.71-8.15,2.71-1.04,0-2.11-.26-3.2-.78Zm-.14-2.28c2.18-1.47,3.85-2.94,4.98-4.42,2.52-3.09,4.46-6.62,5.84-10.61,1.09-2.61,1.95-5.53,2.56-8.76.62-3.23.92-6.24.92-9.04,0-2.61-.55-3.92-1.64-3.92-1.52,0-3.84,3.35-6.98,10.04-1.85,4.04-3.36,8.06-4.52,12.07-1.16,4.01-1.75,7.47-1.75,10.36,0,1,.19,2.42.57,4.27Z" style="fill: #009444; stroke: #279148; stroke-miterlimit: 10; stroke-width: 1.48px;"/>
  <path d="m265.42,130.69l-19.44,19.94c-2.52,2.52-4.55,4.24-6.09,5.16-1.54.93-3.24,1.39-5.09,1.39-2.9,0-5.33-1.08-7.3-3.24-1.97-2.16-2.95-4.81-2.95-7.94,0-1.95.3-4.07.89-6.37.59-2.3,1.77-5.73,3.52-10.29.33-.95.65-1.77.96-2.46.31-.69.56-1.27.75-1.74l-.28-.28c-4.61,4.84-9.12,9.95-13.53,15.31-3.7,4.42-6.65,7.72-8.83,9.9-2.18,2.18-4.15,3.82-5.91,4.91-1.76,1.09-3.32,1.64-4.7,1.64-3.09,0-5.53-1.21-7.33-3.63-1.8-2.42-2.71-5.72-2.71-9.9,0-5.27,2.28-13.79,6.84-25.56,4.08-10.44,7.24-17.45,9.47-21.01,3.27-4.94,7.02-7.41,11.25-7.41,2.56,0,4.68.61,6.37,1.81,1.68,1.21,2.53,2.79,2.53,4.73,0,3.56-1.35,8.99-4.04,16.3-1.04,2.7-2.1,5.76-3.19,9.18l.29.28c1.75-1.94,4.58-5.29,8.47-10.03,6.69-8.25,11.74-13.88,15.16-16.87,4.42-4.08,8.45-6.12,12.11-6.12,1.61,0,3.16.55,4.63,1.64s2.65,2.55,3.53,4.38,1.32,3.74,1.32,5.73-1.47,7.27-4.4,15.67c-.62,1.76-1.09,3.14-1.42,4.13-.33,1-.64,1.85-.92,2.56l.35.28c.66-.66,1.26-1.26,1.78-1.78s1.1-1.08,1.74-1.67c.64-.59,1.24-1.15,1.81-1.68,1.28-1.23,4.5-4.49,9.67-9.76,3.41-3.8,6.09-6.4,8.04-7.8,1.95-1.4,3.82-2.1,5.63-2.1,2.94,0,5.19,1.01,6.73,3.03,1.54,2.02,2.32,5,2.32,8.94,0,2.42-.38,6.24-1.14,11.46-.67,5.89-1.13,10.5-1.39,13.85-.26,3.35-.39,5.69-.39,7.01,0,1,.06,2.27.18,3.81.12,1.54.32,3.19.61,4.95.28,1.76.66,3.7,1.14,5.84.57,2.61.95,4.65,1.14,6.12-.38,1.71-1.63,3.16-3.74,4.34-2.11,1.19-4.4,1.78-6.87,1.78-3.89,0-7.55-1.76-10.97-5.27-1.52-1.61-2.69-3.24-3.52-4.88-.83-1.64-1.43-3.58-1.78-5.84-.36-2.25-.54-5.23-.54-8.94,0-2.42.29-7.43.86-15.02l-.29-.28-1.28,1.78Z" style="fill: #009444; stroke: #279148; stroke-miterlimit: 10; stroke-width: 1.48px;"/>
  <path d="m321.39,159.53c2.8-.14,5.35-1.51,7.65-4.09,2.3-2.59,3.45-5.4,3.45-8.44,0-2.09-.69-3.75-2.06-4.98-1.47-1.47-4.77-2.92-9.9-4.34-7.55-2.18-12.46-4.63-14.74-7.33-2.14-2.18-3.2-4.79-3.2-7.83,0-5.46,1.98-10.92,5.95-16.38,3.96-5.46,9.03-9.93,15.2-13.42,6.17-3.49,12.39-5.23,18.66-5.23,3.04,0,5.89.71,8.55,2.14,2.66,1.42,4.77,3.31,6.34,5.66,1.57,2.35,2.35,4.9,2.35,7.65s-.86,5.51-2.56,8.4c-1.71,2.9-3.86,5.31-6.44,7.23-2.59,1.92-5.04,2.88-7.37,2.88-1.33,0-2.48-.28-3.45-.85-.97-.57-1.46-1.19-1.46-1.85s.19-1.64.57-2.92c1.04-4.08,1.57-7.64,1.57-10.68s-.9-5.81-2.71-8.47c-2.33,1.61-3.84,2.89-4.56,3.84-1.8,2.09-3.2,4.46-4.2,7.11-1.09,2.7-1.64,5.26-1.64,7.68,0,1.71.39,3.07,1.18,4.09.79,1.02,2.07,1.89,3.85,2.6s4.47,1.5,8.08,2.35c6.03,1.47,10.27,2.9,12.74,4.28.57.33,1.45,1.02,2.63,2.07,1.8,1.95,2.7,4.46,2.7,7.55,0,3.28-1.02,6.59-3.06,9.94-2.04,3.35-5.2,6.8-9.47,10.36-4.56,3.85-9.09,6.6-13.6,8.26-4.51,1.66-9.5,2.49-14.95,2.49s-9.41-1.04-12.43-3.13c-3.02-2.09-4.52-4.94-4.52-8.54,0-2.56,1-5.16,2.99-7.8s4.47-4.78,7.44-6.44c2.97-1.66,5.87-2.49,8.72-2.49,2.14,0,3.21.48,3.21,1.42,0,.47-.31,1.26-.93,2.35-1.85,3.32-2.78,6.39-2.78,9.19,0,1.99.74,3.89,2.21,5.7Z" style="fill: #009444; stroke: #279148; stroke-miterlimit: 10; stroke-width: 1.48px;"/>
</svg>